<?xml version="1.0" encoding="utf-8"?>
<!-- Generator: Adobe Illustrator 26.2.1, SVG Export Plug-In . SVG Version: 6.00 Build 0)  -->
<svg version="1.1" id="Laag_1" xmlns:svgjs="http://svgjs.dev/svgjs"
	 xmlns="http://www.w3.org/2000/svg" xmlns:xlink="http://www.w3.org/1999/xlink" x="0px" y="0px" viewBox="0 0 500 500"
	 style="enable-background:new 0 0 500 500;" xml:space="preserve">
<style type="text/css">
	.st0{fill:#FFFFFF;}
	.st1{fill:#333333;}
</style>
<rect class="st0" width="500" height="500"/>
<g>
	<path class="st1" d="M262.1,118.5c-18.4-13.6-42.8-20.4-73.3-20.4c-6.3,0-13.7,0.2-22.4,0.7c-8.6,0.5-14.9,0.7-18.9,0.7
		c-10.3,1-19.5,1.5-27.8,1.5c-8.3,0-19.4-0.3-33.3-1l-24.8-0.5c-0.7,0-1,1-1,3s0.3,3,1,3c12.6,0,21.8,0.9,27.6,2.7
		c5.8,1.8,9.7,5.1,11.7,9.7c2,4.6,3,11.9,3,21.9v229.9c0,9.9-1,17.3-3,22.1c-2,4.8-5.9,8-11.7,9.7c-5.8,1.7-15,2.5-27.6,2.5
		c-0.7,0-1,1-1,3s0.3,3,1,3c10.6,0,19-0.2,25.3-0.5l33.3-0.5l43.2,0.5c7.6,0.3,18.2,0.5,31.8,0.5c1,0,1.5-1,1.5-3s-0.5-3-1.5-3
		c-17.6,0-30.4-1-38.5-3c-8.1-2-13.6-5.4-16.4-10.2c-2.8-4.8-4.2-12.5-4.2-23.1v-227c0-11.3,1.2-19.3,3.5-24.1
		c2.3-4.8,6.1-7.9,11.4-9.2c5.3-1.3,13.9-2,25.8-2c22.2,0,40.4,7.5,54.6,22.6c14.2,15.1,21.4,35.7,21.4,61.8
		c0,26.8-7.5,47.4-22.6,61.6c-15.1,14.2-33.5,21.4-55.4,21.4c-6.6,0-12.6-0.7-17.9-2c-0.7-0.3-1.2,0-1.7,1c-0.5,1-0.7,2-0.7,3
		c0,1.7,0.5,2.5,1.5,2.5c6.3,1.7,14.2,2.5,23.8,2.5c17.9,0,35.3-3.6,52.1-10.9c16.9-7.3,30.7-18.4,41.5-33.3
		c10.8-14.9,16.1-33.3,16.1-55.1C289.7,152.7,280.5,132,262.1,118.5z"/>
	<path class="st1" d="M427.2,28c-7.6-2.1-11.8-2.6-12.4-1.2l-125.2,438c-0.3,1.3,3.4,3.1,11.2,5.2c7.8,2.1,12,2.6,12.7,1.2
		L438.2,33.7C438.5,32.1,434.9,30.2,427.2,28z"/>
</g>
</svg>
